<svg width="33" height="32" viewBox="0 0 33 32" fill="none" xmlns="http://www.w3.org/2000/svg">
<path d="M22.9249 14.4C20.8021 14.4 20.5082 16.4572 20.5082 16.4572H25.0183C25.0183 16.4572 25.0477 14.4 22.9249 14.4ZM12.6928 16.4572H8.6969V20.0286H12.4945C13.0674 20.0143 14.1398 19.8572 14.1398 18.2929C14.1398 16.4357 12.6928 16.4572 12.6928 16.4572Z" fill="white"/>
<path d="M16.4536 0C7.3674 0 0 7.16429 0 16C0 24.8357 7.3674 32 16.4536 32C25.5398 32 32.9072 24.8357 32.9072 16C32.9072 7.16429 25.5398 0 16.4536 0ZM19.9206 9.82857H25.5839V11.4714H19.9206V9.82857ZM17.0559 18.4571C17.0559 22.5286 12.6928 22.4 12.6928 22.4H5.55309V9.04286H12.6928C14.867 9.04286 16.5785 10.2071 16.5785 12.6C16.5785 14.9929 14.4851 15.1429 14.4851 15.1429C17.2469 15.1429 17.0559 18.4571 17.0559 18.4571ZM27.6479 18.2357H20.5303C20.5303 20.7143 22.9469 20.5571 22.9469 20.5571C25.2313 20.5571 25.1505 19.1214 25.1505 19.1214H27.5671C27.5671 22.9357 22.8661 22.6714 22.8661 22.6714C17.2322 22.6714 17.5921 17.5643 17.5921 17.5643C17.5921 17.5643 17.5848 12.4357 22.8661 12.4357C28.4265 12.4429 27.6479 18.2357 27.6479 18.2357Z" fill="white"/>
<path d="M13.6624 12.8071C13.6624 11.4214 12.6928 11.4214 12.6928 11.4214H8.6969V14.4H12.443C13.0894 14.4 13.6624 14.1928 13.6624 12.8071Z" fill="white"/>
</svg>
