<svg width="33" height="32" viewBox="0 0 33 32" fill="none" xmlns="http://www.w3.org/2000/svg">
<path d="M16.5464 0C7.46399 0 0.0927734 7.168 0.0927734 16C0.0927734 24.832 7.46399 32 16.5464 32C25.6288 32 33 24.832 33 16C33 7.168 25.6288 0 16.5464 0ZM24.1809 10.88C23.934 13.408 22.8646 19.552 22.3216 22.384C22.0912 23.584 21.6305 23.984 21.2028 24.032C20.2484 24.112 19.5245 23.424 18.6031 22.832C17.1552 21.904 16.3325 21.328 14.9339 20.432C13.305 19.392 14.3581 18.816 15.2959 17.888C15.5427 17.648 19.7548 13.92 19.8371 13.584C19.8485 13.5331 19.847 13.4803 19.8327 13.4301C19.8183 13.3799 19.7916 13.3339 19.7548 13.296C19.6561 13.216 19.5245 13.248 19.4093 13.264C19.2612 13.296 16.9577 14.784 12.4659 17.728C11.8077 18.16 11.2154 18.384 10.6889 18.368C10.0966 18.352 8.97772 18.048 8.13859 17.776C7.10201 17.456 6.29578 17.28 6.3616 16.72C6.3945 16.432 6.80585 16.144 7.57916 15.84C12.3836 13.808 15.5756 12.464 17.1716 11.824C21.7457 9.968 22.6836 9.648 23.3088 9.648C23.4404 9.648 23.7531 9.68 23.9505 9.84C24.115 9.968 24.1644 10.144 24.1809 10.272C24.1644 10.368 24.1973 10.656 24.1809 10.88Z" fill="white"/>
</svg>
